<svg id="Layer_1" data-name="Layer 1" xmlns="http://www.w3.org/2000/svg" viewBox="0 0 75.02 52.23"><title>members</title><path d="M39.78,70.12h-12a9,9,0,0,1-5.73-2,5.23,5.23,0,0,1-2.16-3.69,24.46,24.46,0,0,1,2.5-13.76,7.79,7.79,0,0,1,4.69-4.07,4.45,4.45,0,0,1,4.15.67c6.08,4.25,11.25,4.22,17.3,0a5.59,5.59,0,0,1,7.59,1.65A21,21,0,0,1,59.7,65c-.51,3-3.74,5-7.54,5.09-4.12.08-8.25,0-12.38,0Z" transform="translate(-2.35 -17.91)"/><path d="M39.92,48.18a11.07,11.07,0,0,1-11.2-10.93A11.34,11.34,0,0,1,39.91,26a11.2,11.2,0,0,1,11,11.16A10.87,10.87,0,0,1,39.92,48.18Z" transform="translate(-2.35 -17.91)"/><path d="M29.62,44.91c-5.2-.26-7.49,3-9,6.94-.63,1.61-1.48,2.3-3.23,2.2-3.11-.17-6.25.16-9.36-.32C4.25,53.16,2.29,51,2.35,47.24A20,20,0,0,1,4.55,38c1.91-3.6,4.8-4.35,8.16-2.16a11.22,11.22,0,0,0,12.42-.16,8.92,8.92,0,0,1,1.5-1c.63-.28,1.15,0,1,.72C26.78,38.83,27.82,41.84,29.62,44.91Z" transform="translate(-2.35 -17.91)"/><path d="M65.49,54h-.2c-3.44.53-5.78-.31-7.09-4.07A6.9,6.9,0,0,0,51,45c-.94.06-.84-.45-.47-1a11.23,11.23,0,0,0,1.63-8.42c-.17-1.13.42-1.12,1.16-.78a10.27,10.27,0,0,1,1.32.9,11.1,11.1,0,0,0,12.75-.11c2.44-1.7,5.06-1.45,6.82,1a16.93,16.93,0,0,1,2.91,12.93c-.41,2.58-2.6,3.76-5.05,4.2A31.48,31.48,0,0,1,65.49,54Z" transform="translate(-2.35 -17.91)"/><path d="M27.84,27.3a9,9,0,1,1-18-.9,9,9,0,0,1,9.32-8.48A9.09,9.09,0,0,1,27.84,27.3Z" transform="translate(-2.35 -17.91)"/><path d="M51.89,27.09a9.13,9.13,0,0,1,8.91-9.18A9.25,9.25,0,0,1,70.06,27,9.27,9.27,0,0,1,61,36.09,9.13,9.13,0,0,1,51.89,27.09Z" transform="translate(-2.35 -17.91)"/></svg>