<svg id="Layer_1" data-name="Layer 1" xmlns="http://www.w3.org/2000/svg" viewBox="0 0 66.67 72.3"><title>requirements</title><path d="M7.07,37q0-12.88,0-25.79c0-4.62,2.27-6.9,6.84-6.91,10.46,0,20.93,0,31.39,0a4.23,4.23,0,0,1,3.47,1.52q5.44,6.14,11,12.12a4.65,4.65,0,0,1,1.4,3.37c0,6.33-.05,12.66,0,19,0,1.69-.52,2.33-2.31,2.33s-2.27-.69-2.25-2.38c.08-5.33,0-10.66.05-16,0-1.52-.41-2.21-2-2.1s-3.2,0-4.79,0a5,5,0,0,1-5.25-4.47,26.39,26.39,0,0,1-.19-6.58c.11-2.08-.68-2.59-2.66-2.57-9.06.09-18.12,0-27.19,0-2.72,0-3.25.53-3.26,3.29q0,22.59,0,45.18c0,1.8,0,3.6,0,5.4,0,2.31.51,2.79,2.86,2.79,7.73,0,15.46,0,23.19,0,2.4,0,3.4,1,3.57,3.45.08,1.24-.8,1-1.47,1-2.66,0-5.33,0-8,0-5.74,0-11.47,0-17.2,0-5,0-7.24-2.23-7.24-7.15Q7.06,49.77,7.07,37Z" transform="translate(-7.06 -4.23)"/><path d="M58.72,46.65a14.95,14.95,0,1,1-.06,29.89,14.95,14.95,0,1,1,.06-29.89ZM55.58,69.14a2.71,2.71,0,0,0,2.15-1.21c3.11-3.36,6.21-6.74,9.33-10.1,1-1,1.42-2.23.3-3.33S65,54,64.09,55c-1.82,1.94-3.61,3.91-5.43,5.84-3,3.22-3,3.21-6-.22-.18-.2-.35-.41-.53-.6-.86-.89-1.83-1.47-2.95-.51a2.08,2.08,0,0,0-.14,3.18c1.5,1.86,3,3.68,4.59,5.51A2.3,2.3,0,0,0,55.58,69.14Z" transform="translate(-7.06 -4.23)"/><path d="M28.2,23.73H20c-1,0-2-.1-2-1.35s.93-1.56,1.91-1.57q8.46,0,16.92,0c1,0,2,.35,2,1.54s-1,1.39-2,1.39Z" transform="translate(-7.06 -4.23)"/><path d="M28.19,32.93H20c-1,0-2-.11-2-1.36S18.93,30,19.91,30q8.46,0,16.92,0c1,0,2,.36,1.94,1.55s-1,1.38-2,1.38Z" transform="translate(-7.06 -4.23)"/><path d="M28.19,42.13H20c-1,0-2-.11-2-1.36s.93-1.56,1.91-1.57q8.46,0,16.93,0c1,0,2,.36,1.94,1.54s-1,1.39-2,1.39Z" transform="translate(-7.06 -4.23)"/></svg>