<svg id="Layer_1" data-name="Layer 1" xmlns="http://www.w3.org/2000/svg" viewBox="0 0 77.16 57.9"><defs><style>.cls-1{fill-rule:evenodd;}</style></defs><title>tuoring</title><path class="cls-1" d="M69.48,49.68l-31.55-.07s0,0,0,0c0,.18-.05.35-.07.5a.45.45,0,0,0,0,.11,2.08,2.08,0,0,0,0,.23,1.11,1.11,0,0,0,0,.17,1.58,1.58,0,0,0,0,.59,3.46,3.46,0,0,1,.13,1.06,3.29,3.29,0,0,1-.63,2.16.74.74,0,0,1-.53.23c-.44,0-.85-.38-1.11-.38h-.08c-.37.14-1.51,2.21-2.3,2.35H33.1s-.09,0-.1,0-.06-.12,0-.22h0a.58.58,0,0,0,0-.14l.08-.16a1.14,1.14,0,0,1,.1-.19v0l.37-.61c.15-.23.31-.49.5-.77l.29-.42a5.91,5.91,0,0,0,.45-1.67c.05-.3.11-.64.16-1s.07-.5.1-.77l.06-.5c0-.16,0-.34.06-.51h0s0,0,0,0l-24.28-.06L1.06,67.74l77.17.18Z" transform="translate(-1.06 -10.02)"/><path class="cls-1" d="M36.09,39.86c0,.5-.08,1-.13,1.51s-.07.82-.1,1.24-.06.71-.1,1c-.06.81-.14,1.61-.2,2.37s-.16,1.6-.23,2.34c0,.25,0,.5-.09.75s0,.33-.05.48a.43.43,0,0,1,0,0H35l0-7.49c0-.45-.42-.82-.91-1.1a8.1,8.1,0,0,0-1.25-.56c-1.27-.44-3.18-1.15-3.17-3.47a11.21,11.21,0,0,1,1-4.13A7.46,7.46,0,0,0,31.37,30c0-1.85-1.08-3.85-3.45-3.85s-3.43,2-3.43,3.83a7.26,7.26,0,0,0,.75,2.9A11.23,11.23,0,0,1,26.18,37c0,2.32-1.95,3-3.24,3.45-.47.19-2.28.76-2.28,1.66l0,7.49-2,0,0-7.45c0-2.23,2.53-3.12,3.9-3.59,1.76-.57,1.52-.9,1.52-1.52a9.32,9.32,0,0,0-.8-3.37A9.12,9.12,0,0,1,22.41,30c0-2.94,1.91-5.88,5.51-5.87s5.55,2.95,5.54,5.9a10,10,0,0,1-.91,3.64A9.54,9.54,0,0,0,31.73,37c0,.62.62.95,2.32,1.52l.21.08A4.93,4.93,0,0,1,36.09,39.86Z" transform="translate(-1.06 -10.02)"/><path d="M40.79,12h0m-.22,37.62v.11a1.94,1.94,0,0,0,1.92,1.78l18.72,0a1.94,1.94,0,0,0,1.92-1.72.88.88,0,0,1,0-.16c.15-1.62.34-3.9.34-6,0-4.2-.81-11.94-2.37-15.53q-.3-.71-.6-1.29c-.17-.34-.35-.68-.53-1l0-.09a.24.24,0,0,0-.06-.09,1.74,1.74,0,0,0-.11-.18,1.59,1.59,0,0,0-.13-.22c-.06-.1-.12-.2-.19-.3a.86.86,0,0,1-.07-.1,1.74,1.74,0,0,0-.13-.2,6.89,6.89,0,0,0-.49-.67s0,0,0,0a4.65,4.65,0,0,0-.39-.49l0-.05,0,0-.11-.13a0,0,0,0,1,0,0c-.18-.2-.41-.44-.66-.68a9.64,9.64,0,0,0-1.2-1A7.48,7.48,0,0,0,54.89,21l-.1,0-.09,0-.41-.13a5.83,5.83,0,0,0-.6-.15h-.08l-.51-.09c-.24,0-.48,0-.72,0a2.75,2.75,0,0,0-.4,0,2.62,2.62,0,0,0-.28,0l-.25,0h0l-.62.05-.87.06h0c-.6,0-1.08.06-1.46.06-.73,0-.89-.1-1-.17a7.53,7.53,0,0,1,0-1.81,7.31,7.31,0,0,0-.63-4.28,10.37,10.37,0,0,0-1.26-1.68l-.05-.05-.38-.4a8.88,8.88,0,0,0-1-.85c-.11-.08-.24-.18-.4-.28a5.84,5.84,0,0,0-.88-.48l-.06,0-.14-.06-.19-.09-.14-.05h-.06a2.8,2.8,0,0,0-.33-.12,5,5,0,0,0-.87-.21l-.25,0-.16,0h-.1a2.36,2.36,0,0,0-.44,0H40a2.64,2.64,0,0,0-.36,0l-.22,0h0l-.22,0-.23.05h0l-.16,0-.07,0a4.17,4.17,0,0,0-.68.22,5.72,5.72,0,0,0-.73.31,6.72,6.72,0,0,0-3.48,4,8.1,8.1,0,0,0,.65,6.19,7.13,7.13,0,0,0,4.49,3.67c-.4.52-1,1.19-1.48,1.73l-1,1.17a5.46,5.46,0,0,0-1.28,3.06,0,0,0,0,1,0,0s0,.08,0,.13,0,.15,0,.24V31s0,.07,0,.1a1.43,1.43,0,0,0,0,.22c0,.13,0,.29-.06.46s0,.32-.07.5c0,.4-.09.87-.14,1.37l0,.28c0,.17,0,.33,0,.46s0,.09,0,.14a3,3,0,0,0,0,.31l0,.18v.14q0,.33-.06.69c0,.48-.09,1-.13,1.49,0,.3-.06.59-.08.89v.07c0,.11,0,.21,0,.32a.1.1,0,0,0,0,0,.13.13,0,0,1,0,.06l0,.41,0,.4c0,.27,0,.55-.07.84s0,.47-.06.72a.53.53,0,0,0,0,.13c0,.22,0,.41,0,.59s0,.47-.06.69-.06.67-.09,1c-.06.83-.14,1.62-.2,2.38-.06.56-.12,1.12-.17,1.66l-.06.64c0,.12,0,.25,0,.37s0,.24,0,.35v0c0,.17,0,.33,0,.48v.07l0,.12,0,.32V50l-.05.44-.06.41c0,.12,0,.23-.05.35,0,.34-.09.66-.14.94a7.12,7.12,0,0,1-.24,1l0,.07-.15.22,0,0-.27.43-.22.34,0,0-.21.35-.16.26a.93.93,0,0,0-.1.2l-.05.09,0,0-.09.2a.61.61,0,0,0-.05.12c0,.06,0,.12-.07.19a1.65,1.65,0,0,0-.11.45A2.1,2.1,0,0,0,31.63,58l0,0a2.07,2.07,0,0,0,1.1.53,1.86,1.86,0,0,0,.33,0,2.21,2.21,0,0,0,.44,0h.06a4.61,4.61,0,0,0,2.59-2,2.49,2.49,0,0,0,.57.06,2.61,2.61,0,0,0,1.89-.79,5.26,5.26,0,0,0,1.2-3.51,5.58,5.58,0,0,0-.16-1.39.15.15,0,0,0,0-.07v-.09s0-.1,0-.16a1.6,1.6,0,0,0,0-.23v-.12c0-.09,0-.19,0-.29v0q0-.15.06-.33a.6.6,0,0,1,0-.12c0-.13,0-.27.07-.42s.05-.28.08-.42l.06-.28a.22.22,0,0,1,0-.08,2.34,2.34,0,0,1,0-.26.14.14,0,0,0,0-.07l0-.15m20.95,1.82-18.72,0c-.18-2.42-.42-4.07-.41-5.12a10.34,10.34,0,0,0-2-5.13l-.41,1.81c-.08.37-.16.76-.26,1.15,0,.18-.07.35-.11.53s-.08.38-.13.59c-.23,1.13-.48,2.29-.69,3.36-.07.28-.12.56-.17.82s0,.26-.07.39-.09.5-.15.73-.1.62-.14.89c0,0,0,0,0,0,0,.18-.05.35-.07.51a.34.34,0,0,0,0,.1,2.08,2.08,0,0,0,0,.23,1.11,1.11,0,0,0,0,.17,1.65,1.65,0,0,0,0,.59,3.78,3.78,0,0,1,.14,1.06,3.29,3.29,0,0,1-.63,2.16.74.74,0,0,1-.53.23c-.44,0-.85-.38-1.11-.38h-.08c-.37.14-1.52,2.21-2.3,2.35a.51.51,0,0,1-.17,0l-.11,0a.28.28,0,0,1,0-.23h0s0-.09,0-.14l.08-.16a1.74,1.74,0,0,1,.1-.19v0l.37-.61c.15-.23.31-.49.5-.77l.28-.42a5.39,5.39,0,0,0,.46-1.67c.05-.3.11-.64.16-1s.07-.5.1-.77l.06-.5q0-.24.06-.51h0s0,0,0,0,0-.32.06-.48,0-.5.08-.75c.07-.74.15-1.52.23-2.34s.14-1.56.2-2.37c0-.34.07-.7.1-1s.07-.83.1-1.24.09-1,.13-1.51a1.23,1.23,0,0,1,0-.2l.06-.82c0-.16,0-.31,0-.47.07-.82.13-1.61.21-2.37l.06-.68c0-.11,0-.23,0-.35s0-.3,0-.44,0-.25,0-.37c.07-.62.12-1.18.18-1.67,0-.17,0-.33.06-.47s0-.31.06-.45,0-.15,0-.22,0-.21,0-.3a.84.84,0,0,1,0-.18s0,0,0-.05a3.65,3.65,0,0,1,.83-2.1C40,26.2,41.93,24.45,41,23.47S37.59,22.9,36.12,20s-.93-6.09,2-7.56a3.13,3.13,0,0,1,.54-.23,5.08,5.08,0,0,1,.51-.17s.06,0,.07,0l.33,0,.32,0h.24c.13,0,.26,0,.39,0l.35,0s0,0,0,0h.07l.18,0,.29.09.2.07.17.06a.46.46,0,0,1,.14.07.07.07,0,0,1,0,0l.16.07a4.36,4.36,0,0,1,.64.35L43,13a7.23,7.23,0,0,1,.78.67l.39.41a9.26,9.26,0,0,1,1,1.37c1,1.61-.29,4.91.76,6.23a2.77,2.77,0,0,0,2.49,1c.47,0,1,0,1.62-.07.45,0,1-.08,1.5-.11l.56,0,.27,0,.48,0,.45.07h0l.43.1a3.39,3.39,0,0,1,.41.15,6.09,6.09,0,0,1,1,.55,8.64,8.64,0,0,1,1,.77c.2.2.39.39.58.6v0s0,0,0,0l.06.06c.13.16.26.31.37.47l0,.06c.14.18.27.36.4.55a.41.41,0,0,1,.05.09l.15.2a1.19,1.19,0,0,1,.12.22c.1.14.19.29.28.43l0,.06c.18.31.35.64.51,1s.38.8.55,1.19c1.4,3.21,2.22,10.55,2.21,14.76C61.52,45.62,61.35,47.82,61.16,49.63Z" transform="translate(-1.06 -10.02)"/></svg>