<svg id="Layer_1" data-name="Layer 1" xmlns="http://www.w3.org/2000/svg" viewBox="0 0 101.22 97.91"><defs><style>.cls-1{fill:#fff;}</style></defs><title>volunteering</title><path class="cls-1" d="M-12.36,87.27V-10.64H88.86V87.27ZM32.4,36.61H31.28c-.86-2.7-1.75-5.4-2.59-8.12-1.45-4.67-2.83-9.35-4.3-14-.65-2-2.08-3.42-4.41-2.89s-3.2,2.1-2.74,4.36c.16.75.28,1.51.45,2.26,1.44,6.34,2.92,12.68,4.29,19,.15.68-.3,1.48-.47,2.22-.74-.41-1.8-.64-2.18-1.26-1.27-2.05-2.19-4.29-3.44-6.35a19.37,19.37,0,0,0-3.61-4.81c-2-1.67-4.32-.56-4.29,2a17.3,17.3,0,0,0,1.19,5.55c1.62,4.4,3.49,8.72,5.17,13.11,2.61,6.8,5,13.69,7.77,20.43a12.43,12.43,0,0,0,7.71,7.15c11.31,3.9,24.29-1.32,29.67-11.55,4.71-8.94,9.92-17.63,14.91-26.44a18.06,18.06,0,0,0,1.11-2c.85-2.19-.12-3.8-2.36-3.2a22.91,22.91,0,0,0-7.67,3.74c-2,1.49-3.18,3.91-4.94,5.71a4.39,4.39,0,0,1-3.12,1.45A3.67,3.67,0,0,1,55,40.56a102.88,102.88,0,0,1-1.31-10.81c-.46-6.31-.74-12.64-1.14-18.95-.14-2.27-1.5-3.51-3.84-3.56a3.53,3.53,0,0,0-3.87,3.21,14.67,14.67,0,0,0-.06,2.3c0,6.72,0,13.43-.15,20.15,0,.67-.69,1.32-1.06,2-.49-.59-1.26-1.12-1.42-1.79-.46-2-.68-4-1-5.94-1-6.73-2-13.45-3-20.17C37.83,4.72,36.41,3.15,34,3.34s-3.57,1.84-3.46,4.22c0,1.25.09,2.49.21,3.73.7,7.54,1.44,15.08,2.1,22.62A10.65,10.65,0,0,1,32.4,36.61Z" transform="translate(12.36 10.64)"/><path d="M32.4,36.61a10.65,10.65,0,0,0,.44-2.7c-.66-7.54-1.4-15.08-2.1-22.62-.12-1.24-.16-2.48-.21-3.73-.11-2.38,1.06-4,3.46-4.22S37.83,4.72,38.18,7c1,6.72,2,13.44,3,20.17.3,2,.52,4,1,5.94.16.67.93,1.2,1.42,1.79.37-.66,1-1.31,1.06-2,.12-6.72.12-13.43.15-20.15a14.67,14.67,0,0,1,.06-2.3,3.53,3.53,0,0,1,3.87-3.21c2.34,0,3.7,1.29,3.84,3.56.4,6.31.68,12.64,1.14,19A102.88,102.88,0,0,0,55,40.56a3.67,3.67,0,0,0,2.41,2.38,4.39,4.39,0,0,0,3.12-1.45c1.76-1.8,3-4.22,4.94-5.71A22.91,22.91,0,0,1,73.16,32c2.24-.6,3.21,1,2.36,3.2a18.06,18.06,0,0,1-1.11,2c-5,8.81-10.2,17.5-14.91,26.44C54.12,73.93,41.14,79.15,29.83,75.25a12.43,12.43,0,0,1-7.71-7.15C19.34,61.36,17,54.47,14.35,47.67,12.67,43.28,10.8,39,9.18,34.56A17.3,17.3,0,0,1,8,29c0-2.52,2.33-3.63,4.29-2a19.37,19.37,0,0,1,3.61,4.81c1.25,2.06,2.17,4.3,3.44,6.35.38.62,1.44.85,2.18,1.26.17-.74.62-1.54.47-2.22-1.37-6.36-2.85-12.7-4.29-19-.17-.75-.29-1.51-.45-2.26-.46-2.26.49-3.86,2.74-4.36s3.76.85,4.41,2.89c1.47,4.66,2.85,9.34,4.3,14,.84,2.72,1.73,5.42,2.59,8.12Zm5.41,12.31c-3.5-4.21-6.27-5.08-10-3.15-3.36,1.73-4.77,5.72-3.15,9.76,2.28,5.7,7.15,9,12.36,11.93a1.7,1.7,0,0,0,1.38,0c5.2-2.9,10.14-6.14,12.38-11.88,1.68-4.27.28-8.22-3.27-9.92C43.66,43.86,40.84,44.8,37.81,48.92Z" transform="translate(12.36 10.64)"/><path class="cls-1" d="M37.81,48.92c3-4.12,5.85-5.06,9.68-3.23,3.55,1.7,4.95,5.65,3.27,9.92-2.24,5.74-7.18,9-12.38,11.88a1.7,1.7,0,0,1-1.38,0c-5.21-2.91-10.08-6.23-12.36-11.93-1.62-4-.21-8,3.15-9.76C31.54,43.84,34.31,44.71,37.81,48.92Z" transform="translate(12.36 10.64)"/></svg>